<svg width="107" height="107" viewBox="0 0 107 107" fill="none" xmlns="http://www.w3.org/2000/svg">
<path d="M23.7172 70.8975C23.6387 70.8975 23.5584 70.8925 23.4765 70.8808C19.6562 70.3291 15.9915 69.1304 12.5876 67.3164C11.7734 66.8817 11.4641 65.8685 11.8987 65.0526C12.3351 64.2401 13.3432 63.9308 14.1625 64.3638C17.222 65.9973 20.5173 67.0739 23.953 67.5688C24.8675 67.7009 25.5011 68.5485 25.3707 69.4631C25.2503 70.2973 24.5348 70.8975 23.7172 70.8975Z" fill="#E90000"/>
<path d="M83.2828 70.8975C82.4652 70.8975 81.7497 70.2973 81.6293 69.4647C81.4989 68.5502 82.1325 67.7026 83.0471 67.5705C86.4844 67.0756 89.778 65.9989 92.8376 64.3655C93.6584 63.9325 94.6649 64.2418 95.1013 65.0543C95.536 65.8685 95.2267 66.8834 94.4125 67.318C91.0085 69.132 87.3438 70.3308 83.5235 70.8825C83.4416 70.8925 83.3614 70.8975 83.2828 70.8975Z" fill="#E90000"/>
<path d="M65.795 55.8891C65.4807 55.8891 65.1647 55.8005 64.8838 55.6183C64.1097 55.1134 63.8907 54.0785 64.3956 53.3044C66.7647 49.6714 70.7671 47.5013 75.104 47.5013C76.0285 47.5013 76.7759 48.2486 76.7759 49.1732C76.7759 50.0977 76.0285 50.8451 75.104 50.8451C71.9007 50.8451 68.9448 52.4467 67.1977 55.1301C66.8784 55.6216 66.3434 55.8891 65.795 55.8891Z" fill="#E90000"/>
<path d="M78.8105 50.8451C72.8837 50.8451 67.8781 45.8395 67.8781 39.9143C67.8781 33.9892 72.8837 28.9836 78.8105 28.9836C84.7357 28.9836 89.7413 33.9892 89.7413 39.9143C89.7413 45.8395 84.7357 50.8451 78.8105 50.8451ZM78.8105 32.3274C74.6977 32.3274 71.2219 35.8015 71.2219 39.9143C71.2219 44.0271 74.6977 47.5013 78.8105 47.5013C82.9233 47.5013 86.3975 44.0271 86.3975 39.9143C86.3975 35.8015 82.9233 32.3274 78.8105 32.3274Z" fill="#E90000"/>
<path d="M93.625 61.958C92.7005 61.958 91.9531 61.2107 91.9531 60.2861C91.9531 55.0816 87.7183 50.8467 82.5137 50.8467C81.5892 50.8467 80.8419 50.0994 80.8419 49.1748C80.8419 48.2503 81.5892 47.503 82.5137 47.503C89.5624 47.503 95.2969 53.2392 95.2969 60.2861C95.2969 61.209 94.5496 61.958 93.625 61.958Z" fill="#E90000"/>
<path d="M82.5137 50.8451H75.1057C74.1811 50.8451 73.4338 50.0977 73.4338 49.1732C73.4338 48.2486 74.1811 47.5013 75.1057 47.5013H82.5137C83.4383 47.5013 84.1856 48.2486 84.1856 49.1732C84.1856 50.0977 83.4366 50.8451 82.5137 50.8451Z" fill="#E90000"/>
<path d="M93.625 67.5137C92.7005 67.5137 91.9531 66.7663 91.9531 65.8418V60.2861C91.9531 59.3616 92.7005 58.6143 93.625 58.6143C94.5495 58.6143 95.2969 59.3616 95.2969 60.2861V65.8418C95.2969 66.7663 94.5495 67.5137 93.625 67.5137Z" fill="#E90000"/>
<path d="M33.7468 68.7475C32.8222 68.7475 32.0749 68.0002 32.0749 67.0756C32.0749 57.984 39.4713 50.5893 48.5613 50.5893C49.4858 50.5893 50.2332 51.3366 50.2332 52.2611C50.2332 53.1857 49.4858 53.933 48.5613 53.933C41.3137 53.933 35.4187 59.828 35.4187 67.0756C35.4187 68.0002 34.6697 68.7475 33.7468 68.7475Z" fill="#E90000"/>
<path d="M58.4387 53.933H48.5613C47.6368 53.933 46.8894 53.1857 46.8894 52.2611C46.8894 51.3366 47.6368 50.5893 48.5613 50.5893H58.4387C59.3633 50.5893 60.1106 51.3366 60.1106 52.2611C60.1106 53.1857 59.3633 53.933 58.4387 53.933Z" fill="#E90000"/>
<path d="M41.2051 55.8891C40.6584 55.8891 40.1234 55.6216 39.8024 55.1301C38.0536 52.4484 35.0994 50.8451 31.8961 50.8451C30.9715 50.8451 30.2242 50.0977 30.2242 49.1732C30.2242 48.2486 30.9715 47.5013 31.8961 47.5013C36.2346 47.5013 40.2354 49.6714 42.6044 53.3044C43.1093 54.0785 42.8903 55.1134 42.1162 55.6183C41.8337 55.8005 41.5177 55.8891 41.2051 55.8891Z" fill="#E90000"/>
<path d="M33.7468 76.1556C32.8222 76.1556 32.0749 75.4082 32.0749 74.4837V67.0756C32.0749 66.1511 32.8222 65.4037 33.7468 65.4037C34.6713 65.4037 35.4187 66.1511 35.4187 67.0756V74.4837C35.4187 75.4082 34.6697 76.1556 33.7468 76.1556Z" fill="#E90000"/>
<path d="M53.5 53.933C45.9014 53.933 39.4814 47.513 39.4814 39.9143C39.4814 32.3157 45.9014 25.8957 53.5 25.8957C61.0987 25.8957 67.5187 32.3157 67.5187 39.9143C67.5187 47.513 61.0987 53.933 53.5 53.933ZM53.5 29.2394C47.7137 29.2394 42.8251 34.128 42.8251 39.9143C42.8251 45.7007 47.7137 50.5893 53.5 50.5893C59.2864 50.5893 64.1749 45.7007 64.1749 39.9143C64.1749 34.128 59.2864 29.2394 53.5 29.2394Z" fill="#E90000"/>
<path d="M73.2532 68.7475C72.3287 68.7475 71.5813 68.0002 71.5813 67.0756C71.5813 59.828 65.6863 53.933 58.4387 53.933C57.5142 53.933 56.7668 53.1857 56.7668 52.2611C56.7668 51.3366 57.5142 50.5893 58.4387 50.5893C67.5304 50.5893 74.9251 57.9856 74.9251 67.0756C74.9251 68.0002 74.1778 68.7475 73.2532 68.7475Z" fill="#E90000"/>
<path d="M73.2532 76.1556C72.3287 76.1556 71.5813 75.4082 71.5813 74.4837V67.0756C71.5813 66.1511 72.3287 65.4037 73.2532 65.4037C74.1778 65.4037 74.9251 66.1511 74.9251 67.0756V74.4837C74.9251 75.4082 74.1778 76.1556 73.2532 76.1556Z" fill="#E90000"/>
<path d="M53.5 81.1043C46.4447 81.1043 39.3911 79.389 32.9594 75.96C32.1452 75.5236 31.8359 74.5121 32.2705 73.6962C32.7069 72.8837 33.7134 72.5744 34.5343 73.0074C46.4113 79.3422 60.5921 79.3422 72.4674 73.0074C73.2867 72.5744 74.2965 72.8837 74.7312 73.6962C75.1658 74.5104 74.8565 75.5236 74.0423 75.96C67.609 79.3873 60.5553 81.1043 53.5 81.1043Z" fill="#E90000"/>
<path d="M28.1895 50.8451C22.2644 50.8451 17.2588 45.8395 17.2588 39.9143C17.2588 33.9892 22.2644 28.9836 28.1895 28.9836C34.1146 28.9836 39.1202 33.9892 39.1202 39.9143C39.1202 45.8395 34.1146 50.8451 28.1895 50.8451ZM28.1895 32.3274C24.0767 32.3274 20.6025 35.8015 20.6025 39.9143C20.6025 44.0271 24.0767 47.5013 28.1895 47.5013C32.3023 47.5013 35.7765 44.0271 35.7765 39.9143C35.7765 35.8015 32.3023 32.3274 28.1895 32.3274Z" fill="#E90000"/>
<path d="M13.375 61.958C12.4505 61.958 11.7031 61.2107 11.7031 60.2861C11.7031 53.2375 17.4393 47.503 24.4863 47.503C25.4108 47.503 26.1582 48.2503 26.1582 49.1748C26.1582 50.0994 25.4108 50.8467 24.4863 50.8467C19.2817 50.845 15.0469 55.0799 15.0469 60.2861C15.0469 61.209 14.2995 61.958 13.375 61.958Z" fill="#E90000"/>
<path d="M31.8944 50.8451H24.4863C23.5618 50.8451 22.8144 50.0977 22.8144 49.1732C22.8144 48.2486 23.5618 47.5013 24.4863 47.5013H31.8944C32.8189 47.5013 33.5662 48.2486 33.5662 49.1732C33.5662 50.0977 32.8189 50.8451 31.8944 50.8451Z" fill="#E90000"/>
<path d="M13.375 67.5137C12.4505 67.5137 11.7031 66.7663 11.7031 65.8418V60.2861C11.7031 59.3616 12.4505 58.6143 13.375 58.6143C14.2995 58.6143 15.0469 59.3616 15.0469 60.2861V65.8418C15.0469 66.7663 14.2995 67.5137 13.375 67.5137Z" fill="#E90000"/>
</svg>
