<svg width="83" height="83" viewBox="0 0 83 83" fill="none" xmlns="http://www.w3.org/2000/svg">
<path d="M33.7188 35.0156C33.7188 34.2461 33.4906 33.4939 33.0631 32.8541C32.6356 32.2143 32.0279 31.7156 31.317 31.4212C30.6061 31.1267 29.8238 31.0496 29.0691 31.1998C28.3144 31.3499 27.6212 31.7204 27.077 32.2645C26.5329 32.8087 26.1624 33.5019 26.0123 34.2566C25.8621 35.0113 25.9392 35.7936 26.2337 36.5045C26.5281 37.2154 27.0268 37.8231 27.6666 38.2506C28.3064 38.6781 29.0586 38.9063 29.8281 38.9063C30.86 38.9063 31.8496 38.4963 32.5792 37.7667C33.3088 37.0371 33.7188 36.0475 33.7188 35.0156ZM28.5313 35.0156C28.5313 34.7591 28.6073 34.5084 28.7498 34.2951C28.8923 34.0819 29.0949 33.9156 29.3318 33.8175C29.5688 33.7193 29.8296 33.6936 30.0811 33.7437C30.3327 33.7937 30.5638 33.9172 30.7452 34.0986C30.9265 34.28 31.05 34.511 31.1001 34.7626C31.1501 35.0142 31.1244 35.2749 31.0263 35.5119C30.9281 35.7489 30.7619 35.9514 30.5486 36.0939C30.3354 36.2364 30.0846 36.3125 29.8281 36.3125C29.4842 36.3125 29.1543 36.1759 28.9111 35.9327C28.6679 35.6894 28.5313 35.3596 28.5313 35.0156Z" fill="white"/>
<path d="M38.9062 9.07813C39.6757 9.07813 40.428 8.84995 41.0678 8.42244C41.7076 7.99493 42.2062 7.3873 42.5007 6.67638C42.7952 5.96546 42.8722 5.18319 42.7221 4.42848C42.572 3.67377 42.2014 2.98053 41.6573 2.43641C41.1132 1.8923 40.42 1.52175 39.6653 1.37163C38.9106 1.22151 38.1283 1.29856 37.4174 1.59303C36.7065 1.88751 36.0988 2.38618 35.6713 3.02599C35.2438 3.6658 35.0156 4.41801 35.0156 5.1875C35.0156 6.21936 35.4255 7.20896 36.1552 7.93859C36.8848 8.66822 37.8744 9.07813 38.9062 9.07813ZM38.9062 3.89063C39.1627 3.89063 39.4135 3.96669 39.6268 4.10919C39.84 4.25169 40.0062 4.45424 40.1044 4.69121C40.2026 4.92818 40.2282 5.18894 40.1782 5.44051C40.1282 5.69208 40.0047 5.92316 39.8233 6.10453C39.6419 6.2859 39.4108 6.40942 39.1593 6.45946C38.9077 6.5095 38.6469 6.48382 38.41 6.38566C38.173 6.2875 37.9704 6.12128 37.8279 5.90801C37.6854 5.69474 37.6094 5.444 37.6094 5.1875C37.6094 4.84355 37.746 4.51368 37.9892 4.27047C38.2324 4.02726 38.5623 3.89063 38.9062 3.89063Z" fill="white"/>
<path d="M10.375 16.8594C11.1445 16.8594 11.8967 16.6312 12.5365 16.2037C13.1763 15.7762 13.675 15.1685 13.9695 14.4576C14.2639 13.7467 14.341 12.9644 14.1909 12.2097C14.0407 11.455 13.6702 10.7618 13.1261 10.2177C12.582 9.67355 11.8887 9.303 11.134 9.15288C10.3793 9.00276 9.59704 9.07981 8.88612 9.37428C8.1752 9.66876 7.56757 10.1674 7.14006 10.8072C6.71256 11.447 6.48438 12.1993 6.48438 12.9688C6.48438 14.0006 6.89428 14.9902 7.62391 15.7198C8.35355 16.4495 9.34314 16.8594 10.375 16.8594ZM10.375 11.6719C10.6315 11.6719 10.8822 11.7479 11.0955 11.8904C11.3088 12.0329 11.475 12.2355 11.5732 12.4725C11.6713 12.7094 11.697 12.9702 11.647 13.2218C11.5969 13.4733 11.4734 13.7044 11.292 13.8858C11.1107 14.0672 10.8796 14.1907 10.628 14.2407C10.3764 14.2907 10.1157 14.2651 9.87871 14.1669C9.64173 14.0688 9.43919 13.9025 9.29669 13.6893C9.15419 13.476 9.07812 13.2252 9.07812 12.9688C9.07812 12.6248 9.21476 12.2949 9.45797 12.0517C9.70118 11.8085 10.031 11.6719 10.375 11.6719Z" fill="white"/>
<path d="M60.4811 24.6406C59.2264 24.6371 57.9835 24.8826 56.8244 25.3627C55.6652 25.8429 54.6129 26.5483 53.7282 27.438C49.1677 32.002 45.2545 37.1698 42.0979 42.7969H6.48437C6.14042 42.7969 5.81055 42.9335 5.56734 43.1767C5.32413 43.4199 5.1875 43.7498 5.1875 44.0938C5.16405 51.2125 7.24407 58.1796 11.1664 64.1203C15.0888 70.0611 20.6787 74.7108 27.2344 77.4857V80.4063C27.2344 80.7502 27.371 81.0801 27.6142 81.3233C27.8574 81.5665 28.1873 81.7031 28.5312 81.7031H54.4688C54.8127 81.7031 55.1426 81.5665 55.3858 81.3233C55.629 81.0801 55.7656 80.7502 55.7656 80.4063V77.4857C62.3213 74.7108 67.9112 70.0611 71.8336 64.1203C75.7559 58.1796 77.8359 51.2125 77.8125 44.0938C77.8125 43.7498 77.6759 43.4199 77.4327 43.1767C77.1894 42.9335 76.8596 42.7969 76.5156 42.7969H65.2977C65.9552 42.1874 66.6049 41.5713 67.2339 40.9437C68.4508 39.729 69.3163 38.2075 69.7384 36.5407C70.1606 34.874 70.1238 33.124 69.6318 31.4765L80.8718 27.154C81.0599 27.0823 81.2288 26.9677 81.365 26.8194C81.5011 26.6711 81.6009 26.4932 81.6564 26.2997C81.7119 26.1061 81.7216 25.9023 81.6847 25.7044C81.6478 25.5065 81.5653 25.3199 81.4437 25.1594L77.5531 19.9719C77.4499 19.834 77.3202 19.7181 77.1716 19.631C77.023 19.5438 76.8586 19.4871 76.6879 19.4641C76.5172 19.4412 76.3436 19.4525 76.1773 19.4974C76.011 19.5422 75.8553 19.6198 75.7193 19.7255L71.3203 23.1479L77.5453 15.0567C77.6677 14.8978 77.7515 14.7127 77.7903 14.5159C77.829 14.3191 77.8215 14.116 77.7685 13.9226C77.7155 13.7291 77.6183 13.5506 77.4846 13.4011C77.3509 13.2516 77.1844 13.1351 76.9981 13.0608L70.5137 10.4671C70.2051 10.3439 69.861 10.3438 69.5524 10.4668C69.2437 10.5899 68.9941 10.8268 68.855 11.1285L62.5094 24.8637C61.8432 24.7172 61.1632 24.6424 60.4811 24.6406ZM53.9876 75.4133C53.7468 75.5095 53.5403 75.6758 53.3949 75.8905C53.2495 76.1053 53.1718 76.3587 53.1719 76.6181V79.1094H29.8281V76.6181C29.8282 76.3587 29.7505 76.1053 29.6051 75.8905C29.4597 75.6758 29.2532 75.5095 29.0124 75.4133C24.7437 73.7229 20.8673 71.1747 17.623 67.9261C14.3786 64.6775 11.8354 60.7978 10.1506 56.5269L15.5625 51.115L21.13 56.6825C21.3732 56.9257 21.703 57.0622 22.0469 57.0622C22.3908 57.0622 22.7206 56.9257 22.9638 56.6825L28.5312 51.115L34.0987 56.6825C34.3419 56.9257 34.6717 57.0622 35.0156 57.0622C35.3595 57.0622 35.6893 56.9257 35.9325 56.6825L41.5 51.115L47.0675 56.6825C47.3107 56.9257 47.6405 57.0622 47.9844 57.0622C48.3283 57.0622 48.6581 56.9257 48.9013 56.6825L54.4688 51.115L60.0362 56.6825C60.2794 56.9257 60.6092 57.0622 60.9531 57.0622C61.297 57.0622 61.6268 56.9257 61.87 56.6825L67.4375 51.115L72.8494 56.5269C71.1646 60.7978 68.6214 64.6775 65.377 67.9261C62.1327 71.1747 58.2563 73.7229 53.9876 75.4133ZM73.7922 53.7996L68.357 48.3644C68.1138 48.1212 67.784 47.9847 67.4401 47.9847C67.0962 47.9847 66.7664 48.1212 66.5232 48.3644L60.9531 53.9319L55.3856 48.3644C55.1424 48.1212 54.8126 47.9847 54.4688 47.9847C54.1249 47.9847 53.7951 48.1212 53.5519 48.3644L47.9844 53.9319L42.4169 48.3644C42.1737 48.1212 41.8439 47.9847 41.5 47.9847C41.1561 47.9847 40.8263 48.1212 40.5831 48.3644L35.0156 53.9319L29.4481 48.3644C29.2049 48.1212 28.8751 47.9847 28.5312 47.9847C28.1874 47.9847 27.8576 48.1212 27.6144 48.3644L22.0469 53.9319L16.4794 48.3644C16.2362 48.1212 15.9064 47.9847 15.5625 47.9847C15.2186 47.9847 14.8888 48.1212 14.6456 48.3644L9.20781 53.7996C8.38798 51.0669 7.91694 48.2415 7.80589 45.3906H75.1941C75.0831 48.2415 74.612 51.0669 73.7922 53.7996ZM65.4001 39.1099C64.1408 40.3691 62.8064 41.5869 61.4446 42.7515L57.9794 39.2862L56.1456 41.12L57.8225 42.7969H45.0833C47.2644 39.1054 49.7894 35.6281 52.6246 32.4115L56.1456 35.9325L57.9794 34.0987L54.378 30.4986C54.767 30.0862 55.1561 29.6738 55.562 29.2718C56.8666 27.9672 58.6361 27.2342 60.4811 27.2342C62.3261 27.2342 64.0955 27.9672 65.4001 29.2718C66.7047 30.5764 67.4376 32.3458 67.4376 34.1908C67.4376 36.0358 66.7047 37.8053 65.4001 39.1099ZM76.2705 22.5838L78.339 25.3435L68.5515 29.1045C68.4776 28.9891 68.4063 28.8723 68.3285 28.7595L76.2705 22.5838ZM70.694 13.3332L74.4406 14.8337L65.6971 26.1969C65.4572 26.04 65.2121 25.8921 64.9579 25.7559L70.694 13.3332Z" fill="white"/>
<path d="M61.8703 30.2077L60.0363 32.0417L63.9272 35.9327L65.7613 34.0986L61.8703 30.2077Z" fill="white"/>
<path d="M47.9844 13.1218V15.5625C47.9843 15.8035 48.0513 16.0398 48.178 16.2448C48.3047 16.4498 48.486 16.6155 48.7015 16.7232L52.4456 18.5946C53.7961 19.27 55.3079 19.5559 56.8117 19.4203C58.3155 19.2847 59.7518 18.7329 60.9596 17.8269L64.325 15.3031C64.525 15.1532 64.6775 14.9486 64.7639 14.7141C64.8504 14.4795 64.8673 14.225 64.8125 13.9811C64.7577 13.7372 64.6335 13.5143 64.455 13.3393C64.2765 13.1643 64.0512 13.0446 63.8063 12.9947L61.4602 12.5252C62.8987 11.5906 64.0805 10.311 64.8979 8.80284C65.7154 7.29473 66.1426 5.60606 66.1406 3.89063C66.1406 3.54668 66.004 3.21681 65.7608 2.9736C65.5176 2.73039 65.1877 2.59376 64.8438 2.59376H63.9671C61.9522 2.59178 59.966 3.07088 58.1737 3.9912C56.3813 4.91151 54.8346 6.24646 53.6621 7.88501C53.2435 6.66844 52.5506 5.56446 51.6372 4.65843C50.7237 3.7524 49.6141 3.0686 48.3942 2.6599C48.1992 2.59496 47.9916 2.57729 47.7885 2.60832C47.5854 2.63936 47.3925 2.71823 47.2258 2.83842C47.0592 2.95862 46.9234 3.1167 46.8298 3.29964C46.7362 3.48258 46.6875 3.68514 46.6875 3.89063V7.62823C46.6863 8.78229 46.9527 9.92091 47.4656 10.9547C47.8036 11.6273 47.9812 12.3691 47.9844 13.1218ZM49.2812 6.03307C50.38 6.8849 51.135 8.10404 51.4081 9.4672L51.9009 11.9313C51.9576 12.211 52.105 12.4643 52.3202 12.6517C52.5355 12.8392 52.8066 12.9504 53.0914 12.9681C53.3763 12.9859 53.6591 12.9091 53.8959 12.7498C54.1327 12.5905 54.3104 12.3574 54.4013 12.0869C55.0402 10.1644 56.2442 8.47933 57.8559 7.25191C59.4677 6.02449 61.4122 5.3118 63.4353 5.20696C63.1984 6.5779 62.5939 7.85885 61.6862 8.91331C60.7786 9.96776 59.6019 10.7562 58.2816 11.1946L56.6527 11.738C56.3815 11.8285 56.1479 12.0061 55.9881 12.2432C55.8283 12.4802 55.7513 12.7634 55.769 13.0487C55.7868 13.334 55.8983 13.6054 56.0862 13.8208C56.2742 14.0362 56.528 14.1835 56.8083 14.2397L60.4486 14.9685L59.4111 15.7467C58.5824 16.3504 57.6051 16.7176 56.5838 16.8089C55.5625 16.9003 54.5356 16.7124 53.6128 16.2654L50.5781 14.761V13.1218C50.5793 11.9677 50.3129 10.8291 49.8 9.7953C49.462 9.12271 49.2844 8.38096 49.2812 7.62823V6.03307Z" fill="white"/>
<path d="M11.6719 37.5445C13.0349 37.5483 14.3851 37.2816 15.6444 36.7601C16.9037 36.2385 18.0471 35.4723 19.0083 34.5059C19.2514 34.2627 19.388 33.9329 19.388 33.589C19.388 33.2452 19.2514 32.9154 19.0083 32.6722L6.16924 19.8331C5.9216 19.5985 5.59346 19.4677 5.25235 19.4677C4.91123 19.4677 4.58309 19.5985 4.33545 19.8331C2.88441 21.2841 1.89622 23.1327 1.49587 25.1454C1.09552 27.158 1.30098 29.2441 2.08627 31.1399C2.87156 33.0357 4.20141 34.6561 5.90764 35.7961C7.61387 36.9362 9.61984 37.5446 11.6719 37.5445ZM10.375 34.8341C9.21993 34.6393 8.12418 34.1848 7.17042 33.5048L10.375 30.3002V34.8341ZM5.33664 31.671C4.6564 30.7173 4.20185 29.6215 4.00734 28.4664H8.54641L5.33664 31.671ZM12.9688 34.8379V30.2989L16.1824 33.5112C15.2264 34.1929 14.1272 34.6467 12.9688 34.8379ZM5.32756 22.6603L8.54122 25.8726H4.00216C4.19414 24.7151 4.64742 23.6165 5.32756 22.6603Z" fill="white"/>
<path d="M27.6364 18.9448C29.6926 19.4625 31.6211 20.3952 33.3036 21.6856C34.9861 22.976 36.3869 24.5968 37.42 26.4485L40.3665 31.754C40.4787 31.9563 40.643 32.1249 40.8423 32.2423C41.0416 32.3598 41.2687 32.4218 41.5 32.4219C41.6098 32.4221 41.7192 32.4081 41.8255 32.3804C42.1036 32.3083 42.3499 32.1459 42.5257 31.9187C42.7015 31.6914 42.7969 31.4123 42.7969 31.125V25.4045C42.7961 20.4179 41.0123 15.5959 37.7676 11.8093C36.6854 10.5452 35.3422 9.53048 33.8303 8.83511C32.3185 8.13974 30.6739 7.78021 29.0098 7.78125C27.9092 7.78195 26.8327 8.10299 25.9115 8.7052C24.9904 9.30741 24.2644 10.1647 23.8223 11.1726L18.3404 10.388L17.9721 12.9558L23.3671 13.7261C23.4224 14.9396 23.8677 16.1028 24.6368 17.043C25.406 17.9832 26.458 18.6501 27.6364 18.9448ZM29.0098 10.375C30.299 10.3747 31.573 10.6537 32.7441 11.1928C33.9152 11.7319 34.9556 12.5183 35.7938 13.4979C38.6372 16.8135 40.2011 21.0366 40.2031 25.4045V26.1191L39.6844 25.1892C38.4782 23.0274 36.8426 21.1351 34.8782 19.6286C32.9139 18.122 30.6622 17.0332 28.2615 16.4288C27.5329 16.2477 26.8959 15.806 26.4707 15.1873C26.0455 14.5685 25.8616 13.8155 25.9537 13.0704C26.0458 12.3253 26.4075 11.6397 26.9706 11.1431C27.5336 10.6465 28.259 10.3733 29.0098 10.375Z" fill="white"/>
</svg>
