<svg width="85" height="57" viewBox="0 0 85 57" fill="none" xmlns="http://www.w3.org/2000/svg">
<path d="M12.7172 45.8975C12.6387 45.8975 12.5584 45.8925 12.4765 45.8808C8.65625 45.3291 4.9915 44.1304 1.58756 42.3164C0.773358 41.8817 0.464061 40.8685 0.898749 40.0526C1.33511 39.2401 2.34325 38.9308 3.16247 39.3638C6.222 40.9973 9.51726 42.0739 12.953 42.5688C13.8675 42.7009 14.5011 43.5485 14.3707 44.4631C14.2503 45.2973 13.5348 45.8975 12.7172 45.8975V45.8975Z" fill="#E90000"/>
<path d="M72.2828 45.8975C71.4652 45.8975 70.7497 45.2973 70.6293 44.4647C70.4989 43.5502 71.1325 42.7026 72.0471 42.5705C75.4844 42.0756 78.778 40.9989 81.8376 39.3655C82.6584 38.9325 83.6649 39.2418 84.1013 40.0543C84.536 40.8685 84.2267 41.8834 83.4125 42.318C80.0085 44.132 76.3438 45.3308 72.5235 45.8825C72.4416 45.8925 72.3614 45.8975 72.2828 45.8975V45.8975Z" fill="#E90000"/>
<path d="M54.795 30.8891C54.4807 30.8891 54.1647 30.8005 53.8838 30.6183C53.1097 30.1134 52.8907 29.0785 53.3956 28.3044C55.7647 24.6714 59.7671 22.5013 64.104 22.5013C65.0285 22.5013 65.7759 23.2486 65.7759 24.1732C65.7759 25.0977 65.0285 25.8451 64.104 25.8451C60.9007 25.8451 57.9448 27.4467 56.1977 30.1301C55.8784 30.6216 55.3434 30.8891 54.795 30.8891Z" fill="#E90000"/>
<path d="M67.8105 25.8451C61.8837 25.8451 56.8781 20.8395 56.8781 14.9143C56.8781 8.98921 61.8837 3.98361 67.8105 3.98361C73.7357 3.98361 78.7413 8.98921 78.7413 14.9143C78.7413 20.8395 73.7357 25.8451 67.8105 25.8451V25.8451ZM67.8105 7.32736C63.6977 7.32736 60.2219 10.8015 60.2219 14.9143C60.2219 19.0271 63.6977 22.5013 67.8105 22.5013C71.9233 22.5013 75.3975 19.0271 75.3975 14.9143C75.3975 10.8015 71.9233 7.32736 67.8105 7.32736V7.32736Z" fill="#E90000"/>
<path d="M82.625 36.958C81.7005 36.958 80.9531 36.2107 80.9531 35.2861C80.9531 30.0816 76.7183 25.8467 71.5137 25.8467C70.5892 25.8467 69.8419 25.0994 69.8419 24.1748C69.8419 23.2503 70.5892 22.503 71.5137 22.503C78.5624 22.503 84.2969 28.2392 84.2969 35.2861C84.2969 36.209 83.5496 36.958 82.625 36.958Z" fill="#E90000"/>
<path d="M71.5137 25.8451H64.1057C63.1811 25.8451 62.4338 25.0977 62.4338 24.1732C62.4338 23.2486 63.1811 22.5013 64.1057 22.5013H71.5137C72.4383 22.5013 73.1856 23.2486 73.1856 24.1732C73.1856 25.0977 72.4366 25.8451 71.5137 25.8451Z" fill="#E90000"/>
<path d="M82.625 42.5137C81.7005 42.5137 80.9531 41.7663 80.9531 40.8418V35.2861C80.9531 34.3616 81.7005 33.6143 82.625 33.6143C83.5495 33.6143 84.2969 34.3616 84.2969 35.2861V40.8418C84.2969 41.7663 83.5495 42.5137 82.625 42.5137Z" fill="#E90000"/>
<path d="M22.7468 43.7475C21.8222 43.7475 21.0749 43.0002 21.0749 42.0756C21.0749 32.984 28.4713 25.5893 37.5613 25.5893C38.4858 25.5893 39.2332 26.3366 39.2332 27.2611C39.2332 28.1857 38.4858 28.933 37.5613 28.933C30.3137 28.933 24.4187 34.828 24.4187 42.0756C24.4187 43.0002 23.6697 43.7475 22.7468 43.7475Z" fill="#E90000"/>
<path d="M47.4387 28.933H37.5613C36.6368 28.933 35.8894 28.1857 35.8894 27.2611C35.8894 26.3366 36.6368 25.5893 37.5613 25.5893H47.4387C48.3633 25.5893 49.1106 26.3366 49.1106 27.2611C49.1106 28.1857 48.3633 28.933 47.4387 28.933Z" fill="#E90000"/>
<path d="M30.2051 30.8891C29.6584 30.8891 29.1234 30.6216 28.8024 30.1301C27.0536 27.4484 24.0994 25.8451 20.8961 25.8451C19.9715 25.8451 19.2242 25.0977 19.2242 24.1732C19.2242 23.2486 19.9715 22.5013 20.8961 22.5013C25.2346 22.5013 29.2354 24.6714 31.6044 28.3044C32.1093 29.0785 31.8903 30.1134 31.1162 30.6183C30.8337 30.8005 30.5177 30.8891 30.2051 30.8891Z" fill="#E90000"/>
<path d="M22.7468 51.1556C21.8222 51.1556 21.0749 50.4082 21.0749 49.4837V42.0756C21.0749 41.1511 21.8222 40.4037 22.7468 40.4037C23.6713 40.4037 24.4187 41.1511 24.4187 42.0756V49.4837C24.4187 50.4082 23.6697 51.1556 22.7468 51.1556Z" fill="#E90000"/>
<path d="M42.5 28.933C34.9014 28.933 28.4814 22.513 28.4814 14.9143C28.4814 7.31566 34.9014 0.89566 42.5 0.89566C50.0987 0.89566 56.5187 7.31566 56.5187 14.9143C56.5187 22.513 50.0987 28.933 42.5 28.933ZM42.5 4.23941C36.7137 4.23941 31.8251 9.12797 31.8251 14.9143C31.8251 20.7007 36.7137 25.5893 42.5 25.5893C48.2864 25.5893 53.1749 20.7007 53.1749 14.9143C53.1749 9.12797 48.2864 4.23941 42.5 4.23941V4.23941Z" fill="#E90000"/>
<path d="M62.2532 43.7475C61.3287 43.7475 60.5813 43.0002 60.5813 42.0756C60.5813 34.828 54.6863 28.933 47.4387 28.933C46.5142 28.933 45.7668 28.1857 45.7668 27.2611C45.7668 26.3366 46.5142 25.5893 47.4387 25.5893C56.5304 25.5893 63.9251 32.9856 63.9251 42.0756C63.9251 43.0002 63.1778 43.7475 62.2532 43.7475V43.7475Z" fill="#E90000"/>
<path d="M62.2532 51.1556C61.3287 51.1556 60.5813 50.4082 60.5813 49.4837V42.0756C60.5813 41.1511 61.3287 40.4037 62.2532 40.4037C63.1778 40.4037 63.9251 41.1511 63.9251 42.0756V49.4837C63.9251 50.4082 63.1778 51.1556 62.2532 51.1556Z" fill="#E90000"/>
<path d="M42.5 56.1043C35.4447 56.1043 28.3911 54.389 21.9594 50.96C21.1452 50.5236 20.8359 49.5121 21.2705 48.6962C21.7069 47.8837 22.7134 47.5744 23.5343 48.0074C35.4113 54.3422 49.5921 54.3422 61.4674 48.0074C62.2867 47.5744 63.2965 47.8837 63.7312 48.6962C64.1658 49.5104 63.8565 50.5236 63.0423 50.96C56.609 54.3873 49.5553 56.1043 42.5 56.1043Z" fill="#E90000"/>
<path d="M17.1895 25.8451C11.2644 25.8451 6.25879 20.8395 6.25879 14.9143C6.25879 8.98921 11.2644 3.98361 17.1895 3.98361C23.1146 3.98361 28.1202 8.98921 28.1202 14.9143C28.1202 20.8395 23.1146 25.8451 17.1895 25.8451ZM17.1895 7.32736C13.0767 7.32736 9.60254 10.8015 9.60254 14.9143C9.60254 19.0271 13.0767 22.5013 17.1895 22.5013C21.3023 22.5013 24.7765 19.0271 24.7765 14.9143C24.7765 10.8015 21.3023 7.32736 17.1895 7.32736Z" fill="#E90000"/>
<path d="M2.375 36.958C1.45045 36.958 0.703125 36.2107 0.703125 35.2861C0.703125 28.2375 6.43933 22.503 13.4863 22.503C14.4108 22.503 15.1582 23.2503 15.1582 24.1748C15.1582 25.0994 14.4108 25.8467 13.4863 25.8467C8.28173 25.845 4.04688 30.0799 4.04688 35.2861C4.04688 36.209 3.29955 36.958 2.375 36.958Z" fill="#E90000"/>
<path d="M20.8944 25.8451H13.4863C12.5618 25.8451 11.8144 25.0977 11.8144 24.1732C11.8144 23.2486 12.5618 22.5013 13.4863 22.5013H20.8944C21.8189 22.5013 22.5662 23.2486 22.5662 24.1732C22.5662 25.0977 21.8189 25.8451 20.8944 25.8451Z" fill="#E90000"/>
<path d="M2.375 42.5137C1.45045 42.5137 0.703125 41.7663 0.703125 40.8418V35.2861C0.703125 34.3616 1.45045 33.6143 2.375 33.6143C3.29955 33.6143 4.04688 34.3616 4.04688 35.2861V40.8418C4.04688 41.7663 3.29955 42.5137 2.375 42.5137Z" fill="#E90000"/>
</svg>
