<svg width="206" height="206" viewBox="0 0 206 206" fill="none" xmlns="http://www.w3.org/2000/svg">
<g clip-path="url(#clip0_50_80)">
<path d="M17.7023 34.5254C16.0527 34.5254 14.6848 33.1575 14.6848 31.508V19.1164C14.6848 8.57549 23.2543 0.00598145 33.7952 0.00598145H119.893C130.433 0.00598145 139.003 8.57549 139.003 19.1164V31.2263C139.003 32.8759 137.635 34.2438 135.986 34.2438C134.336 34.2438 132.968 32.8759 132.968 31.2263V19.1164C132.968 11.9148 127.094 6.04084 119.893 6.04084H33.7952C26.5936 6.04084 20.7197 11.9148 20.7197 19.1164V31.508C20.7197 33.1575 19.3518 34.5254 17.7023 34.5254Z" fill="white"/>
<path d="M119.893 206.004H33.7952C23.2543 206.004 14.6848 197.434 14.6848 186.894V45.1547C14.6848 43.5052 16.0527 42.1373 17.7023 42.1373C19.3518 42.1373 20.7197 43.5052 20.7197 45.1547V186.894C20.7197 194.095 26.5936 199.969 33.7952 199.969H119.893C127.094 199.969 132.968 194.095 132.968 186.894V140.787C132.968 139.138 134.336 137.77 135.986 137.77C137.635 137.77 139.003 139.138 139.003 140.787V186.894C139.003 197.434 130.433 206.004 119.893 206.004Z" fill="white"/>
<path d="M100.003 195.53H33.7805C28.9929 195.53 25.1306 191.667 25.1306 186.88V19.1107C25.1306 14.323 28.9929 10.4607 33.7805 10.4607H49.9137C52.1265 10.4607 54.0979 11.8689 54.8221 13.9609L56.7532 19.5935H96.865L98.7961 13.9609C99.5203 11.8689 101.492 10.4607 103.745 10.4607H119.878C124.666 10.4607 128.528 14.323 128.528 19.1107V31.9046C128.528 33.5541 127.16 34.922 125.51 34.922C123.861 34.922 122.493 33.5541 122.493 31.9046V19.1107C122.493 17.6623 121.326 16.4956 119.878 16.4956H104.348L102.417 22.1281C101.693 24.2202 99.7215 25.6283 97.4684 25.6283H56.19C53.9772 25.6283 51.9656 24.2202 51.2414 22.0879L49.3103 16.4553H33.7403C32.2919 16.4553 31.1252 17.6221 31.1252 19.0704V186.88C31.1252 188.328 32.2919 189.495 33.7403 189.495H100.003C101.653 189.495 103.021 190.863 103.021 192.512C103.021 194.162 101.653 195.53 100.003 195.53Z" fill="white"/>
<path d="M119.893 195.519H114.139C112.49 195.519 111.122 194.151 111.122 192.502C111.122 190.852 112.49 189.484 114.139 189.484H119.893C121.341 189.484 122.508 188.317 122.508 186.869V139.234C122.508 137.584 123.876 136.216 125.525 136.216C127.175 136.216 128.543 137.584 128.543 139.234V186.869C128.543 191.657 124.68 195.519 119.893 195.519Z" fill="white"/>
<path d="M81.3515 142.756C80.2652 142.756 79.179 142.313 78.3743 141.509C77.1271 140.261 76.765 138.411 77.449 136.801L82.5987 124.852C84.6908 120.025 84.5701 114.472 82.3171 109.604C77.449 99.1037 75.8799 87.4765 77.811 75.9701C79.7824 64.2222 85.2943 53.5606 93.7029 45.152C111.807 27.1279 139.97 23.2656 162.219 35.8583C163.667 36.663 164.19 38.5137 163.345 39.9621C162.541 41.4104 160.69 41.9334 159.241 41.0886C139.326 29.8637 114.181 33.2835 98.0077 49.4569C82.9206 64.5441 78.8169 87.7179 87.7887 107.11C90.7659 113.507 90.8866 120.869 88.1105 127.266L84.7713 135.071L92.3752 131.732C98.8124 128.916 106.215 128.956 112.612 131.933C132.487 141.066 155.942 136.641 171.03 120.869C190.582 100.431 190.059 68.9294 169.863 49.0948C168.656 47.9281 168.656 46.0371 169.823 44.8302C170.989 43.6232 172.88 43.6232 174.087 44.7899C184.95 55.4113 191.025 69.5731 191.266 84.6603C191.508 99.7474 185.875 114.07 175.375 125.054C164.351 136.56 149.344 142.675 134.096 142.675C126.009 142.675 117.842 140.945 110.158 137.405C105.33 135.152 99.7377 135.112 94.8696 137.244L83.0815 142.394C82.5182 142.635 81.9148 142.756 81.3515 142.756Z" fill="white"/>
<path d="M92.5357 169.58H61.1544C54.8379 169.58 49.6882 164.43 49.6882 158.113C49.6882 151.797 54.8379 146.647 61.1544 146.647H92.5357C98.8522 146.647 104.002 151.797 104.002 158.113C104.002 164.43 98.8522 169.58 92.5357 169.58ZM61.1544 152.682C58.1772 152.682 55.723 155.136 55.723 158.113C55.723 161.091 58.1772 163.545 61.1544 163.545H92.5357C95.5129 163.545 97.9671 161.091 97.9671 158.113C97.9671 155.136 95.5129 152.682 92.5357 152.682H61.1544Z" fill="white"/>
<path d="M160.728 93.5063H107.622C105.972 93.5063 104.604 92.1384 104.604 90.4889V87.2703C104.604 70.9762 117.881 57.6995 134.175 57.6995C150.469 57.6995 163.746 70.9762 163.746 87.2703V90.4889C163.746 92.1384 162.378 93.5063 160.728 93.5063ZM110.639 87.4715H157.711V87.2703C157.711 74.2753 147.17 63.7344 134.175 63.7344C121.18 63.7344 110.639 74.2753 110.639 87.2703V87.4715Z" fill="white"/>
<path d="M169.58 93.5063H98.7706C97.121 93.5063 95.7531 92.1384 95.7531 90.4889C95.7531 88.8394 97.121 87.4715 98.7706 87.4715H169.58C171.229 87.4715 172.597 88.8394 172.597 90.4889C172.597 92.1384 171.229 93.5063 169.58 93.5063Z" fill="white"/>
<path d="M134.175 63.7344C132.526 63.7344 131.158 62.3665 131.158 60.7169V54.4809C131.158 52.8314 132.526 51.4635 134.175 51.4635C135.825 51.4635 137.193 52.8314 137.193 54.4809V60.7169C137.193 62.3665 135.825 63.7344 134.175 63.7344Z" fill="white"/>
<path d="M158.204 104.771H110.166C107.39 104.771 104.936 103.082 103.89 100.507L100.39 91.5753C100.028 90.6499 100.148 89.6039 100.712 88.759C101.275 87.9543 102.2 87.4313 103.206 87.4313H165.164C166.17 87.4313 167.095 87.9141 167.658 88.759C168.222 89.5636 168.342 90.6499 167.98 91.5753L164.48 100.507C163.434 103.082 160.98 104.771 158.204 104.771ZM107.632 93.5064L109.523 98.2941C109.643 98.5757 109.885 98.7366 110.166 98.7366H158.204C158.485 98.7366 158.727 98.5757 158.847 98.2941L160.738 93.5064H107.632Z" fill="white"/>
</g>
<defs>
<clipPath id="clip0_50_80">
<rect width="206" height="206" fill="white"/>
</clipPath>
</defs>
</svg>
