<svg width="18" height="18" viewBox="0 0 18 18" fill="none" xmlns="http://www.w3.org/2000/svg">
<g clip-path="url(#clip0_50_4)">
<path d="M7.45357 10.5466C5.7355 8.8285 5.34757 7.11043 5.26005 6.42208C5.2356 6.23176 5.30109 6.04088 5.43726 5.90567L6.8276 4.51595C7.03212 4.31155 7.06842 3.99301 6.91512 3.74784L4.70143 0.310464C4.53183 0.0389898 4.1836 -0.0589881 3.89733 0.0842229L0.343568 1.75791C0.112069 1.8719 -0.0240957 2.11787 0.00218844 2.37457C0.188395 4.14353 0.959602 8.49208 5.23305 12.7658C9.5065 17.0396 13.8544 17.8105 15.6243 17.9967C15.881 18.023 16.127 17.8868 16.241 17.6553L17.9147 14.1016C18.0573 13.8159 17.96 13.4686 17.6897 13.2987L14.2523 11.0856C14.0073 10.9322 13.6887 10.9682 13.4842 11.1725L12.0945 12.5629C11.9593 12.699 11.7684 12.7645 11.5781 12.7401C10.8897 12.6526 9.17164 12.2646 7.45357 10.5466Z" fill="#E90000"/>
<path d="M14.2759 9.62076C13.9331 9.62076 13.6552 9.34286 13.6552 9.00007C13.6523 6.43029 11.5698 4.3478 8.99999 4.3449C8.6572 4.3449 8.3793 4.067 8.3793 3.72421C8.3793 3.38141 8.6572 3.10352 8.99999 3.10352C12.2551 3.10711 14.893 5.74498 14.8965 9.00007C14.8965 9.34286 14.6187 9.62076 14.2759 9.62076Z" fill="#E90000"/>
<path d="M17.3793 9.62069C17.0365 9.62069 16.7586 9.3428 16.7586 9C16.7538 4.71702 13.283 1.24617 8.99999 1.24138C8.6572 1.24138 8.3793 0.963487 8.3793 0.62069C8.3793 0.277892 8.6572 0 8.99999 0C13.9683 0.0054732 17.9945 4.03171 18 9C18 9.16462 17.9346 9.32249 17.8182 9.43889C17.7018 9.55529 17.5439 9.62069 17.3793 9.62069Z" fill="#E90000"/>
</g>
<defs>
<clipPath id="clip0_50_4">
<rect width="18" height="18" fill="white"/>
</clipPath>
</defs>
</svg>
