<svg width="56" height="56" viewBox="0 0 56 56" fill="none" xmlns="http://www.w3.org/2000/svg">
<g clip-path="url(#clip0_50_173)">
<path d="M28 12.4688C19.436 12.4688 12.4688 19.436 12.4688 28C12.4688 36.564 19.436 43.5312 28 43.5312C36.564 43.5312 43.5312 36.564 43.5312 28C43.5312 19.436 36.564 12.4688 28 12.4688ZM28 41.3438C20.6422 41.3438 14.6562 35.3578 14.6562 28C14.6562 20.6422 20.6422 14.6562 28 14.6562C35.3578 14.6562 41.3438 20.6422 41.3438 28C41.3438 35.3578 35.3578 41.3438 28 41.3438Z" fill="#E90000"/>
<path d="M55.4193 0.12775C55.062 -0.0619061 54.6291 -0.0390467 54.2939 0.187359C48.9244 3.81544 45.7188 9.85031 45.7188 16.3307V30.5223C45.7188 32.0445 46.3116 33.4755 47.3878 34.5519L49.4375 36.6016V52.7188C49.4375 54.528 50.9095 56 52.7188 56C54.528 56 56 54.528 56 52.7188V1.09375C56 0.689172 55.7767 0.317625 55.4193 0.12775ZM53.8125 52.7188C53.8125 53.3218 53.3218 53.8125 52.7188 53.8125C52.1157 53.8125 51.625 53.3218 51.625 52.7188V36.1484C51.625 35.8584 51.5097 35.5802 51.3046 35.375L48.9346 33.005C48.2715 32.3419 47.9062 31.4602 47.9062 30.5223V16.3307C47.9062 11.3016 50.0807 6.57508 53.8125 3.31373V52.7188Z" fill="#E90000"/>
<path d="M25.4907 19.3258C25.2536 18.7703 24.6107 18.5123 24.0553 18.7493C20.3439 20.3337 17.9457 23.9648 17.9457 28C17.9457 28.604 18.4354 29.0938 19.0395 29.0938C19.6435 29.0938 20.1332 28.604 20.1332 28C20.1332 24.8425 22.0099 22.001 24.9142 20.7612C25.4697 20.5241 25.7279 19.8814 25.4907 19.3258Z" fill="#E90000"/>
<path d="M28 17.9457L27.9448 17.9458C27.3407 17.9499 26.8543 18.4428 26.8583 19.0469C26.8624 19.6485 27.3513 20.1333 27.952 20.1333C27.9544 20.1333 27.957 20.1333 27.9594 20.1333L28 20.1332C28.6041 20.1332 29.0937 19.6435 29.0937 19.0395C29.0937 18.4354 28.6041 17.9457 28 17.9457Z" fill="#E90000"/>
<path d="M43.1619 13.6149C41.2294 11.5788 38.9516 9.97665 36.3917 8.85315C33.7409 7.68983 30.9175 7.09998 28 7.09998C24.6662 7.09998 21.4795 7.86188 18.5283 9.36469C17.9901 9.63879 17.7758 10.2973 18.0499 10.8357C18.3241 11.3738 18.9827 11.588 19.521 11.314C22.1618 9.96932 25.0145 9.28748 28 9.28748C33.1839 9.28748 38.0051 11.359 41.5752 15.1208C41.7902 15.3474 42.0792 15.4616 42.3687 15.4616C42.6391 15.4616 42.9099 15.3619 43.1214 15.1611C43.5596 14.7453 43.5776 14.0531 43.1619 13.6149Z" fill="#E90000"/>
<path d="M44.2237 39.4164C43.7498 39.0419 43.062 39.1223 42.6874 39.5961C39.1116 44.1188 33.7583 46.7125 28 46.7125C24.3961 46.7125 20.8975 45.6861 17.8825 43.7443C17.3748 43.4172 16.6977 43.5638 16.3707 44.0715C16.0437 44.5795 16.1902 45.2563 16.6981 45.5833C20.067 47.7531 23.9752 48.8999 28 48.8999C34.4313 48.8999 40.41 46.0033 44.4033 40.9527C44.7779 40.479 44.6976 39.7912 44.2237 39.4164Z" fill="#E90000"/>
<path d="M14.8704 41.3354L14.8543 41.317C14.8485 41.3099 14.8427 41.3026 14.8367 41.2956C14.4477 40.8334 13.7577 40.7744 13.2956 41.1633C12.8335 41.5524 12.7742 42.2423 13.1634 42.7045L13.174 42.7171L13.1745 42.7166C13.1861 42.7313 13.1982 42.7459 13.2106 42.7604C13.427 43.0124 13.733 43.1417 14.041 43.1417C14.2932 43.1417 14.5467 43.0549 14.7529 42.8779C15.2112 42.4843 15.2638 41.7938 14.8704 41.3354Z" fill="#E90000"/>
<path d="M13.5625 0C12.9584 0 12.4688 0.489672 12.4688 1.09375V12.9062H10.4991C10.4992 12.9001 10.5 12.8942 10.5 12.888V1.09375C10.5 0.489672 10.0103 0 9.40625 0C8.80217 0 8.3125 0.489672 8.3125 1.09375V12.888C8.3125 12.8941 8.31338 12.9001 8.31338 12.9062H6.34288C6.34298 12.9001 6.34375 12.8942 6.34375 12.888V1.09375C6.34375 0.489672 5.85408 0 5.25 0C4.64592 0 4.15625 0.489672 4.15625 1.09375V12.888C4.15625 12.8941 4.15712 12.9001 4.15712 12.9062H2.1875V1.09375C2.1875 0.489672 1.69783 0 1.09375 0C0.489672 0 0 0.489672 0 1.09375V14.4375C0 17.1205 1.62794 19.5419 4.04688 20.5886V52.7188C4.04688 54.528 5.51884 56 7.32812 56C9.13741 56 10.6094 54.528 10.6094 52.7188V20.5886C13.0283 19.5419 14.6562 17.1205 14.6562 14.4375V1.09375C14.6562 0.489672 14.1666 0 13.5625 0ZM9.212 18.7709C8.74409 18.9061 8.42188 19.3345 8.42188 19.8217V52.7188C8.42188 53.3218 7.93122 53.8125 7.32812 53.8125C6.72503 53.8125 6.23438 53.3218 6.23438 52.7188V19.8217C6.23438 19.3345 5.91227 18.9061 5.44425 18.7709C3.73986 18.2784 2.4932 16.8154 2.23694 15.0938H12.4192C12.163 16.8154 10.9164 18.2784 9.212 18.7709Z" fill="#E90000"/>
</g>
<defs>
<clipPath id="clip0_50_173">
<rect width="56" height="56" fill="white"/>
</clipPath>
</defs>
</svg>
