<svg width="14" height="18" viewBox="0 0 14 18" fill="none" xmlns="http://www.w3.org/2000/svg">
<path d="M7 0C3.40545 0 0.481079 2.92437 0.481079 6.51888C0.481079 10.9798 6.31487 17.5287 6.56325 17.8053C6.79655 18.0651 7.20387 18.0647 7.43674 17.8053C7.68512 17.5287 13.5189 10.9798 13.5189 6.51888C13.5188 2.92437 10.5945 0 7 0ZM7 9.79871C5.19149 9.79871 3.7202 8.32739 3.7202 6.51888C3.7202 4.71037 5.19152 3.23909 7 3.23909C8.80847 3.23909 10.2798 4.71041 10.2798 6.51892C10.2798 8.32743 8.80847 9.79871 7 9.79871Z" fill="#E90000"/>
</svg>
